<?xml version="1.0" standalone="no"?>
<!DOCTYPE svg PUBLIC "-//W3C//DTD SVG 20010904//EN"
 "http://www.w3.org/TR/2001/REC-SVG-20010904/DTD/svg10.dtd">
<svg version="1.0" xmlns="http://www.w3.org/2000/svg"
 width="1024.000000pt" height="1024.000000pt" viewBox="0 0 1024.000000 1024.000000"
 preserveAspectRatio="xMidYMid meet">
<metadata>
Created by potrace 1.14, written by Peter Selinger 2001-2017
</metadata>
<g transform="translate(0.000000,1024.000000) scale(0.100000,-0.100000)"
fill="#000000" stroke="none">
<path d="M7260 8086 c-106 -39 -126 -55 -281 -218 -301 -317 -309 -327 -309
-373 0 -41 9 -50 310 -337 130 -122 306 -290 393 -373 184 -175 207 -190 267
-176 51 11 84 41 116 104 14 27 74 99 133 160 153 158 184 197 220 270 41 83
50 164 35 287 -14 110 -47 189 -123 290 -77 102 -284 290 -319 290 -7 0 -12 3
-12 8 0 6 -64 39 -95 48 -119 37 -266 45 -335 20z m50 -253 c34 -6 181 -137
451 -401 104 -101 129 -131 139 -166 14 -50 7 -109 -17 -146 -35 -52 -207
-221 -224 -218 -26 5 -710 668 -702 681 22 37 228 247 246 250 37 7 73 7 107
0z"/>
<path d="M2995 8016 c-125 -26 -290 -124 -377 -227 -42 -50 -118 -161 -118
-173 0 -3 -11 -29 -24 -58 -13 -29 -29 -71 -35 -93 -7 -26 -11 -396 -12 -1165
-2 -1977 2 -3623 8 -3633 3 -5 8 -24 9 -41 4 -35 14 -63 55 -154 40 -88 97
-168 166 -232 64 -60 174 -140 192 -140 7 0 22 -6 34 -14 12 -7 65 -25 117
-40 l95 -26 1905 2 1905 3 75 22 c94 27 161 57 225 98 57 37 165 143 197 195
12 19 27 42 33 51 29 45 65 120 81 169 18 53 19 133 22 1969 l2 1914 -30 -6
c-66 -14 -87 0 -259 167 -514 497 -658 633 -679 639 -28 7 -82 -10 -99 -31 -7
-9 -43 -47 -80 -86 -65 -67 -247 -264 -343 -370 -25 -27 -58 -63 -75 -80 -121
-126 -386 -409 -460 -491 -49 -55 -126 -138 -171 -185 -44 -47 -112 -119 -150
-160 -38 -41 -101 -109 -140 -150 -93 -100 -154 -166 -195 -215 -19 -22 -41
-47 -49 -55 -44 -44 -120 -140 -138 -177 -20 -38 -55 -152 -66 -213 -8 -43
-56 -252 -73 -315 -9 -33 -17 -73 -19 -89 -2 -17 -11 -55 -19 -85 -59 -230
-135 -581 -135 -629 0 -56 35 -87 98 -86 40 0 81 18 252 104 236 118 537 272
725 370 72 38 163 85 204 107 84 43 149 103 238 218 61 79 83 105 159 188 22
23 66 73 99 112 167 195 813 913 931 1035 l34 34 -1 -1144 c0 -630 -3 -1157
-6 -1172 l-5 -27 -367 -4 c-201 -2 -378 -6 -392 -9 -48 -9 -170 -78 -216 -121
-48 -45 -107 -127 -137 -192 -43 -92 -49 -147 -55 -505 l-6 -345 -1365 -3
c-1238 -2 -1371 -1 -1424 14 -106 29 -185 94 -233 193 l-28 56 0 2310 0 2310
27 50 c34 64 88 116 158 152 l55 28 1585 5 1585 5 31 22 c17 12 69 64 115 115
45 51 128 139 183 196 l101 102 -1830 -1 c-1379 -1 -1845 -4 -1890 -13z m3916
-1312 c78 -77 116 -121 111 -130 -4 -7 -66 -75 -137 -151 -72 -77 -173 -186
-225 -244 -52 -57 -129 -140 -170 -184 -42 -44 -150 -161 -240 -260 -91 -99
-190 -207 -221 -240 -55 -59 -85 -93 -394 -434 -83 -91 -157 -167 -165 -169
-13 -2 -260 218 -268 239 -4 11 23 45 101 129 34 36 130 140 212 230 83 91
186 203 230 250 97 103 357 385 606 655 263 286 401 425 422 425 10 0 72 -52
138 -116z m-1986 -1691 c39 -8 86 -12 106 -9 l36 6 5 -43 c14 -121 108 -211
234 -224 l54 -6 0 -37 c0 -51 17 -98 52 -143 17 -21 28 -39 27 -41 -2 -1 -24
-13 -49 -25 -204 -104 -339 -176 -362 -192 -33 -24 -35 -24 -50 6 -29 55 -112
126 -189 163 -87 42 -84 32 -54 167 8 33 21 98 30 145 9 47 25 125 37 173 17
74 23 87 36 82 10 -4 49 -13 87 -22z m2183 -1995 l-3 -293 -29 -63 c-33 -70
-92 -129 -165 -164 -43 -21 -63 -22 -318 -26 -189 -2 -273 0 -273 7 0 13 219
250 435 471 83 85 194 201 246 256 52 56 98 102 102 103 5 0 7 -131 5 -291z
m-328 205 c-1 -5 -95 -105 -210 -223 l-210 -215 0 183 c0 271 -8 262 237 262
100 0 183 -3 183 -7z"/>
<path d="M3310 7182 c-40 -20 -64 -40 -87 -76 l-33 -48 -1 -292 c-1 -640 0
-684 16 -724 21 -49 52 -81 100 -103 37 -17 74 -19 490 -19 273 0 464 4 486
10 20 6 53 25 73 43 67 62 66 53 66 592 0 466 -1 487 -20 525 -27 53 -65 87
-119 105 -37 13 -116 15 -480 15 l-436 -1 -55 -27z m737 -356 l28 -24 3 -240
3 -239 -26 -32 -27 -31 -214 0 c-231 0 -265 6 -279 51 -4 12 -4 130 0 262 7
215 9 241 26 258 17 17 37 19 238 19 218 0 220 0 248 -24z"/>
<path d="M4840 6849 c-32 -13 -78 -56 -96 -91 -28 -55 -11 -179 30 -217 53
-49 75 -51 444 -49 266 2 346 6 350 16 2 6 8 12 14 12 19 0 75 65 86 100 25
76 -5 164 -69 207 l-43 28 -345 2 c-216 1 -355 -2 -371 -8z"/>
<path d="M3345 5258 c-57 -24 -74 -39 -100 -82 -54 -92 -27 -199 65 -255 34
-20 44 -21 455 -21 386 0 423 2 460 19 48 22 69 44 90 94 27 64 20 118 -21
172 -60 78 -54 77 -514 81 -309 3 -412 1 -435 -8z"/>
<path d="M3300 4138 c-58 -30 -98 -88 -109 -158 -5 -30 -10 -246 -10 -480 -2
-367 1 -433 15 -480 21 -71 56 -118 108 -141 38 -17 73 -19 491 -18 480 0 492
1 553 50 16 13 39 43 51 67 20 40 21 58 21 291 l0 248 -64 5 c-90 8 -196 58
-246 117 l-38 45 1 -213 c2 -212 2 -213 -22 -232 -21 -17 -41 -19 -245 -19
-184 0 -225 3 -244 16 -22 15 -22 18 -22 273 0 247 1 259 20 276 19 17 39 19
236 16 l215 -2 -8 48 c-15 91 -6 180 26 250 l30 63 -357 0 c-351 0 -359 0
-402 -22z"/>
<path d="M4835 3551 c-99 -46 -141 -158 -96 -256 10 -22 27 -47 37 -56 46 -38
69 -40 475 -37 l396 3 36 28 c54 41 70 78 65 152 -5 76 -38 133 -95 161 -35
17 -67 19 -408 22 -344 2 -373 1 -410 -17z"/>
</g>
</svg>
